<svg width="0" height="0" class="hidden">
	<symbol fill="none" xmlns="http://www.w3.org/2000/svg" viewBox="0 0 180 47" id="jestetic-logo">
		<g clip-path="url(#clip0_519_7632)">
			<path d="M7.24461 32.4221V2.73413H4.18493V33.7848C4.18493 39.7224 2.97076 43.1778 0.445312 45.5626L1.1738 46.1953C4.2335 44.2972 7.24461 39.333 7.24461 32.4221Z" fill="black">
			</path>
			<path d="M17.6984 0.397949H14.8815C14.5901 3.85342 13.0359 10.083 12.4531 11.5918H14.1044C15.0271 9.8397 17.2126 3.17206 17.6984 0.397949Z" fill="black">
			</path>
			<path d="M34.7667 35.1962V33.7848H25.7333V18.6002H33.2125V17.1887H25.7333V4.14552H33.941V2.73413H22.625V35.1962H34.7667Z" fill="black">
			</path>
			<path d="M49.3005 10.7654C49.2405 9.02256 47.897 7.91293 46.4208 6.6938L46.3663 6.64885C44.8688 5.41185 44.3831 4.72238 44.3426 3.76928V3.66788C44.3426 2.45117 45.0712 1.45751 46.3663 1.41696H46.427C47.2365 1.41696 48.0256 1.86309 48.4506 2.37005L48.9161 1.59946C48.3899 1.17361 47.3781 0.808594 46.1841 0.808594H46.002C44.6057 0.849157 42.2382 1.51836 42.2382 4.35736V4.53986C42.2989 6.10132 43.4321 7.11525 44.8688 8.33201C46.4877 9.69068 47.0948 10.4004 47.1353 11.7388V11.8199C47.1353 13.1583 46.2651 14.1316 45.0105 14.1722H44.9295C43.6749 14.1722 42.7238 13.3611 42.2179 12.5703L41.5703 13.3002C42.3394 14.152 43.5737 14.8617 45.1724 14.8617H45.3747C46.7103 14.8212 49.3005 14.1316 49.3005 10.9884V10.7654Z" fill="black">
			</path>
			<path d="M58.2432 1.82248V1.19385H50.25V1.82248H53.1234V14.7197H55.3494V1.82248H58.2432Z" fill="black">
			</path>
			<path d="M65.3291 14.7197V14.1316H62.0306V7.8655H64.6816V7.27744H62.0306V1.78193H64.9649V1.19385H59.8047V14.7197H65.3291Z" fill="black">
			</path>
			<path d="M73.9229 1.82248V1.19385H65.9297V1.82248H68.8032V14.7197H71.0292V1.82248H73.9229Z" fill="black">
			</path>
			<path d="M77.6947 14.7197V1.19385H75.4688V14.7197H77.6947Z" fill="black">
			</path>
			<path d="M92.186 13.503L91.7409 12.6715C91.0123 13.4624 89.4946 14.2938 87.7139 14.2938C84.6582 14.2938 82.6346 11.3737 82.6346 7.88568C82.6346 4.37754 84.5773 1.53852 87.5722 1.53852C89.0292 1.53852 90.6076 2.20772 91.3564 3.0797L91.9027 2.228C90.8302 1.43714 89.2315 0.950439 87.1675 0.950439C83.0191 0.950439 80.2266 3.89084 80.2266 7.96685C80.2266 11.8603 82.4727 14.9427 87.3293 14.9427C89.4744 14.9427 91.1337 14.3141 92.186 13.503Z" fill="black">
			</path>
			<path fill-rule="evenodd" clip-rule="evenodd" d="M107.389 14.7197L102.189 0.808594H101.602L96.3203 14.7197H97.3322L99.1533 9.44728H103.12L104.981 14.7197H107.389ZM102.917 8.77811H99.3962L101.177 3.85039L102.917 8.77811Z" fill="black">
			</path>
			<path d="M120.162 13.503L119.718 12.6715C118.989 13.4624 117.471 14.2938 115.691 14.2938C112.635 14.2938 110.611 11.3737 110.611 7.88568C110.611 4.37754 112.554 1.53852 115.549 1.53852C117.006 1.53852 118.584 2.20772 119.333 3.0797L119.879 2.228C118.807 1.43714 117.208 0.950439 115.144 0.950439C110.996 0.950439 108.203 3.89084 108.203 7.96685C108.203 11.8603 110.449 14.9427 115.306 14.9427C117.451 14.9427 119.11 14.3141 120.162 13.503Z" fill="black">
			</path>
			<path fill-rule="evenodd" clip-rule="evenodd" d="M131.647 14.7197L126.446 0.808594H125.86L120.578 14.7197H121.589L123.411 9.44728H127.378L129.239 14.7197H131.647ZM127.174 8.77811H123.653L125.435 3.85039L127.174 8.77811Z" fill="black">
			</path>
			<path fill-rule="evenodd" clip-rule="evenodd" d="M145.659 7.90591C145.659 3.87045 143.453 1.11255 137.848 1.11255C136.472 1.11255 134.874 1.29506 133.477 1.51813V14.3951C134.772 14.6383 136.472 14.8006 137.97 14.8006C142.968 14.8006 145.659 11.9616 145.659 7.90591ZM143.352 7.98697C143.352 11.4952 141.834 14.2531 137.808 14.2531C137.16 14.2531 136.411 14.1314 135.723 13.9286V1.88314C136.31 1.72091 137.16 1.61951 137.929 1.61951C141.592 1.61951 143.352 4.49908 143.352 7.98697Z" fill="black">
			</path>
			<path d="M153.775 14.7197V14.1316H150.476V7.8655H153.128V7.27744H150.476V1.78193H153.411V1.19385H148.25V14.7197H153.775Z" fill="black">
			</path>
			<path d="M170.118 14.7194L167.082 0.970459H166.394L162.306 11.5153L158.441 0.970459H157.754L154.859 14.7194H155.79L157.672 4.70173L161.275 14.7194H161.821L165.686 4.62061L167.79 14.7194H170.118Z" fill="black">
			</path>
			<path d="M179.963 1.19385H178.951L176.037 7.3991L173.143 1.19385H170.695L174.277 8.39278V14.7197H176.462V8.08856L179.963 1.19385Z" fill="black">
			</path>
			<path fill-rule="evenodd" clip-rule="evenodd" d="M46.741 27.38C49.2178 27.38 50.2378 29.0408 50.2378 31.1397C50.2378 33.2567 48.8901 34.954 46.4313 34.954C45.7211 34.954 45.029 34.7533 44.5008 34.4978V34.8263H42.625V20.6272H44.5008V28.11C45.029 27.6903 45.7758 27.38 46.741 27.38ZM45.8668 34.443C47.4331 34.443 48.2526 32.983 48.2526 31.2126C48.2526 29.5518 47.5241 27.9823 45.8668 27.9823C45.3751 27.9823 44.8105 28.2378 44.5008 28.5846V34.0597C44.8469 34.297 45.3386 34.443 45.8668 34.443Z" fill="black">
			</path>
			<path d="M58.3128 27.5259H59.0594L56.874 34.2968C56.704 34.8224 56.5482 35.3141 56.4028 35.7733C55.4573 38.7576 54.9459 40.372 53.7779 41.0679L52.9219 40.2101C54.3242 39.4436 55.3442 38.1113 56.018 35.3737L52.9219 27.5259H54.8888L56.7829 32.8003L58.3128 27.5259Z" fill="black">
			</path>
			<path d="M69.2313 22.6531V33.786C69.2313 36.3776 67.5739 38.2757 66.0805 38.951L65.8438 38.7138C66.7908 37.8195 67.2461 36.5237 67.2461 34.297V22.6531H69.2313Z" fill="black">
			</path>
			<path d="M79.6323 27.5259V34.8262H77.7565V34.2421C77.2648 34.6801 76.5181 35.0086 75.7167 35.0086C74.3326 35.0086 73.4766 34.2604 73.4766 32.7821V27.5259H75.3343V32.344C75.3343 33.3296 75.4617 34.4064 76.4817 34.4064C76.8641 34.4064 77.4287 34.1874 77.7565 33.7858V27.5259H79.6323Z" fill="black">
			</path>
			<path d="M86.9502 34.151L87.1505 34.5343C86.8409 34.7898 86.2945 34.954 85.6753 34.954C84.0544 34.954 83.6719 33.9138 83.6719 32.4537V20.6272H85.5296V32.3077C85.5296 33.6035 85.5478 34.4613 86.2763 34.4613C86.5677 34.4613 86.7862 34.3152 86.9502 34.151Z" fill="black">
			</path>
			<path d="M90.9575 23.2188C91.4856 23.2188 91.941 23.6567 91.941 24.186C91.941 24.7153 91.4856 25.1716 90.9575 25.1716C90.4293 25.1716 89.9922 24.7153 89.9922 24.186C89.9922 23.6567 90.4293 23.2188 90.9575 23.2188Z" fill="black">
			</path>
			<path d="M91.9072 27.5259V34.8262H90.0312V27.5259H91.9072Z" fill="black">
			</path>
			<path fill-rule="evenodd" clip-rule="evenodd" d="M101.19 29.9715V34.8263H99.3688V34.3882C98.95 34.735 98.44 34.8992 97.6932 34.8992C97.2744 34.8992 96.7098 34.8263 96.2727 34.5343C95.8356 34.2422 95.4531 33.7859 95.4531 33.0742C95.4531 32.2712 95.8356 31.7601 96.3455 31.4499C96.8555 31.1396 97.4929 31.0666 97.9664 31.0666C98.44 31.0666 99.0411 31.1761 99.387 31.3221V30.2088C99.387 28.767 98.9682 27.7815 97.6932 27.7815C97.0195 27.7815 96.4002 28.1829 96.0541 28.7852L95.5807 28.4019C95.9449 27.9639 96.7281 27.3069 98.1304 27.3069C99.387 27.3069 101.19 27.7267 101.19 29.9715ZM98.4218 34.3517C98.8042 34.3517 99.1503 34.224 99.3688 34.0232V31.7236C99.1138 31.5958 98.8042 31.5411 98.4582 31.5411C97.9119 31.5411 97.1833 31.9244 97.1833 32.9829C97.1833 34.0597 97.9301 34.3517 98.4218 34.3517Z" fill="black">
			</path>
			<path d="M115.292 34.297V34.8264H110.32V22.6531H114.965V23.1823H112.324V28.1282H114.709V28.6575H112.324V34.297H115.292Z" fill="black">
			</path>
			<path d="M121.7 34.151L121.9 34.5343C121.591 34.7898 121.044 34.954 120.425 34.954C118.804 34.954 118.422 33.9138 118.422 32.4537V20.6272H120.28V32.3077C120.28 33.6035 120.298 34.4613 121.026 34.4613C121.317 34.4613 121.537 34.3152 121.7 34.151Z" fill="black">
			</path>
			<path d="M125.723 23.2188C126.25 23.2188 126.706 23.6567 126.706 24.186C126.706 24.7153 126.25 25.1716 125.723 25.1716C125.195 25.1716 124.758 24.7153 124.758 24.186C124.758 23.6567 125.195 23.2188 125.723 23.2188Z" fill="black">
			</path>
			<path d="M126.673 27.5259V34.8262H124.797V27.5259H126.673Z" fill="black">
			</path>
			<path d="M130.317 27.5259H135.544L131.974 34.3151H135.471V34.8262H129.734L133.25 28.0369H130.317V27.5259Z" fill="black">
			</path>
			<path fill-rule="evenodd" clip-rule="evenodd" d="M143.885 29.9715V34.8263H142.065V34.3882C141.645 34.735 141.136 34.8992 140.389 34.8992C139.97 34.8992 139.405 34.8263 138.968 34.5343C138.531 34.2422 138.148 33.7859 138.148 33.0742C138.148 32.2712 138.531 31.7601 139.041 31.4499C139.551 31.1396 140.189 31.0666 140.662 31.0666C141.136 31.0666 141.736 31.1761 142.082 31.3221V30.2088C142.082 28.767 141.664 27.7815 140.389 27.7815C139.715 27.7815 139.096 28.1829 138.75 28.7852L138.276 28.4019C138.64 27.9639 139.424 27.3069 140.826 27.3069C142.082 27.3069 143.885 27.7267 143.885 29.9715ZM141.117 34.3517C141.499 34.3517 141.846 34.224 142.065 34.0232V31.7236C141.81 31.5958 141.499 31.5411 141.154 31.5411C140.607 31.5411 139.879 31.9244 139.879 32.9829C139.879 34.0597 140.626 34.3517 141.117 34.3517Z" fill="black">
			</path>
			<path d="M151.707 27.3069V28.4384C151.674 28.4312 151.641 28.4231 151.608 28.415C151.475 28.3822 151.332 28.3473 151.143 28.3473C150.632 28.3473 149.977 28.5845 149.759 29.0042V34.8263H147.883V27.526H149.759V28.6028C150.068 28.0187 150.797 27.3069 151.707 27.3069Z" fill="black">
			</path>
			<path fill-rule="evenodd" clip-rule="evenodd" d="M158.077 27.3801C160.59 27.3801 161.938 28.9862 161.938 31.1945C161.938 33.4029 160.39 35.009 158.077 35.009C155.472 35.009 153.906 33.4394 153.906 31.1945C153.906 28.9496 155.672 27.3801 158.077 27.3801ZM158.55 34.4249C160.226 34.4249 161.373 32.9648 161.373 31.1581C161.373 29.3512 160.226 27.8911 158.55 27.8911C156.948 27.8911 155.928 29.3512 155.928 31.1581C155.928 32.9648 156.948 34.4249 158.55 34.4249Z" fill="black">
			</path>
			<path d="M170.021 27.5259H170.767L167.908 35.0269H167.435L164.375 27.5259H166.36L168.218 32.636L170.021 27.5259Z" fill="black">
			</path>
			<path fill-rule="evenodd" clip-rule="evenodd" d="M178.651 29.9715V34.8263H176.829V34.3882C176.411 34.735 175.901 34.8992 175.154 34.8992C174.735 34.8992 174.171 34.8263 173.733 34.5343C173.296 34.2422 172.914 33.7859 172.914 33.0742C172.914 32.2712 173.296 31.7601 173.806 31.4499C174.316 31.1396 174.953 31.0666 175.427 31.0666C175.901 31.0666 176.502 31.1761 176.848 31.3221V30.2088C176.848 28.767 176.428 27.7815 175.154 27.7815C174.48 27.7815 173.861 28.1829 173.514 28.7852L173.041 28.4019C173.406 27.9639 174.188 27.3069 175.591 27.3069C176.848 27.3069 178.651 27.7267 178.651 29.9715ZM175.883 34.3517C176.265 34.3517 176.611 34.224 176.829 34.0232V31.7236C176.574 31.5958 176.265 31.5411 175.919 31.5411C175.373 31.5411 174.644 31.9244 174.644 32.9829C174.644 34.0597 175.39 34.3517 175.883 34.3517Z" fill="black">
			</path>
		</g>
		<defs>
			<clipPath id="clip0_519_7632">
				<rect width="180" height="46.1947" fill="white">
				</rect>
			</clipPath>
		</defs>
	</symbol>
	<symbol fill="none" xmlns="http://www.w3.org/2000/svg" viewBox="0 0 25 25" id="cart-icon">
		<g clip-path="url(#clip0_1437_24)">
			<path d="M19.5778 8.14282H5.42223C5.1784 8.14282 4.97013 8.3187 4.92929 8.55909L2.67502 21.831C2.56537 22.4765 2.77866 23.1349 3.24602 23.5935L3.4166 23.7608C3.79052 24.1277 4.29348 24.3333 4.81736 24.3333H20.1826C20.7065 24.3333 21.2095 24.1277 21.5834 23.7608L21.754 23.5935C22.2213 23.1349 22.4346 22.4765 22.325 21.831L20.0707 8.55909C20.0299 8.3187 19.8216 8.14282 19.5778 8.14282Z" stroke="black" stroke-width="1.4" stroke-linecap="round">
			</path>
			<path d="M8.69043 11V4.33332C8.69043 4.33332 8.69043 2.90475 10.119 1.95237V1.95237C11.5542 0.995533 13.5009 0.917402 14.8809 1.95238V1.95238C15.2892 2.25858 15.594 2.67843 15.8149 3.08037C16.2472 3.86708 16.3095 4.7864 16.3095 5.68405V11" stroke="black" stroke-width="1.4" stroke-linecap="round">
			</path>
		</g>
		<defs>
			<clipPath id="clip0_1437_24">
				<rect width="25" height="25" fill="white">
				</rect>
			</clipPath>
		</defs>
	</symbol>
	<symbol fill="none" xmlns="http://www.w3.org/2000/svg" viewBox="0 0 8 12" id="down-arrow">
		<path d="M3.64645 11.3536C3.84171 11.5488 4.15829 11.5488 4.35355 11.3536L7.53553 8.17157C7.7308 7.97631 7.7308 7.65973 7.53553 7.46447C7.34027 7.2692 7.02369 7.2692 6.82843 7.46447L4 10.2929L1.17157 7.46447C0.976311 7.2692 0.659729 7.2692 0.464466 7.46447C0.269204 7.65973 0.269204 7.97631 0.464466 8.17157L3.64645 11.3536ZM3.5 2.18557e-08L3.5 11L4.5 11L4.5 -2.18557e-08L3.5 2.18557e-08Z" fill="black">
		</path>
	</symbol>
	<symbol fill="none" xmlns="http://www.w3.org/2000/svg" viewBox="0 0 25 25" id="heart-icon">
		<path d="M6.58525 1.70024C6.48925 1.71549 6.1865 1.77099 5.90875 1.82649C3.0365 2.42224 1.00225 4.59274 0.366 7.73249C0.26525 8.23749 0.25 8.45449 0.25 9.46899C0.255 10.4835 0.26525 10.6957 0.366 11.155C0.80025 13.149 1.73925 14.8147 3.37475 16.4957C4.783 17.9495 6.2925 19.0955 9.38675 21.054C10.7647 21.9222 11.1283 22.1797 11.8702 22.8057L12.486 23.3207L13.0818 22.816C13.753 22.2455 14.2982 21.867 16.05 20.7515C18.695 19.0655 20.048 18.0407 21.3805 16.7132C22.8292 15.2695 23.7782 13.8157 24.288 12.271C24.6617 11.14 24.783 10.302 24.7425 9.14099C24.596 5.16324 22.1932 2.27074 18.589 1.74074C17.857 1.63474 16.6202 1.66999 15.9337 1.81649C14.7172 2.07399 13.632 2.61399 12.799 3.36624L12.491 3.64399L12.1275 3.33099C11.2592 2.58399 10.2042 2.06399 9.03325 1.81149C8.58925 1.71549 7.0445 1.64474 6.58525 1.70024ZM8.49825 3.15924C10.0127 3.40649 11.3452 4.26474 12.1782 5.52674C12.3195 5.74899 12.4507 5.95074 12.466 5.98099C12.4812 6.02149 12.5012 6.02149 12.5165 5.98099C12.996 5.01174 14.1267 3.96174 15.1565 3.53774C16.3782 3.02774 17.8925 2.94199 19.195 3.31549C21.3 3.91624 22.769 5.65774 23.2232 8.10599C23.3645 8.84799 23.3545 10.1957 23.203 10.8875C22.683 13.3055 21.1332 15.37 18.1802 17.591C17.5037 18.0957 15.8985 19.171 14.3185 20.1755C13.844 20.4785 13.2332 20.8872 12.9657 21.0842L12.4812 21.4477L12.143 21.1902C11.7795 20.9125 10.997 20.3977 9.28575 19.2972C7.9885 18.4692 6.903 17.7072 6.055 17.0257C5.308 16.425 3.8845 15.0167 3.4555 14.4462C2.572 13.2702 2.042 12.1647 1.7645 10.9077C1.63825 10.3172 1.608 9.02999 1.709 8.34349C2.0925 5.73374 3.6825 3.82549 5.939 3.26524C6.7115 3.07324 7.70575 3.03299 8.49825 3.15924Z" fill="black">
		</path>
	</symbol>
	<symbol fill="none" xmlns="http://www.w3.org/2000/svg" viewBox="0 0 27 27" id="search-icon">
		<path d="M11.7 2.69995C6.74005 2.69995 2.69995 6.74005 2.69995 11.7C2.69995 16.6599 6.74005 20.7 11.7 20.7C13.8568 20.7 15.8376 19.934 17.39 18.6626L22.7636 24.0363C23.7972 25.0733 23.8965 25.1423 24.0064 25.1898C24.1164 25.2373 24.2346 25.2624 24.3544 25.2636C24.4741 25.2648 24.5929 25.2421 24.7038 25.1969C24.8146 25.1516 24.9153 25.0847 25 25C25.0847 24.9153 25.1516 24.8146 25.1969 24.7038C25.2421 24.5929 25.2648 24.4741 25.2636 24.3544C25.2624 24.2346 25.2373 24.1164 25.1898 24.0064C25.1423 23.8965 25.0733 23.7972 24.9869 23.7143L18.6626 17.39C19.934 15.8376 20.7 13.8568 20.7 11.7C20.7 6.74005 16.6599 2.69995 11.7 2.69995ZM11.7 4.49995C15.6871 4.49995 18.9 7.71284 18.9 11.7C18.9 15.6871 15.6871 18.9 11.7 18.9C7.71284 18.9 4.49995 15.6871 4.49995 11.7C4.49995 7.71284 7.71284 4.49995 11.7 4.49995Z" fill="black">
		</path>
	</symbol>
	<symbol fill="none" xmlns="http://www.w3.org/2000/svg" viewBox="0 0 36 9" id="arrow-right">
		<path d="M35.3536 4.85355C35.5488 4.65829 35.5488 4.34171 35.3536 4.14645L32.1716 0.964466C31.9763 0.769204 31.6597 0.769204 31.4645 0.964466C31.2692 1.15973 31.2692 1.47631 31.4645 1.67157L34.2929 4.5L31.4645 7.32843C31.2692 7.52369 31.2692 7.84027 31.4645 8.03553C31.6597 8.2308 31.9763 8.2308 32.1716 8.03553L35.3536 4.85355ZM0 5H35V4H0V5Z" fill="black">
		</path>
	</symbol>
</svg>
