<svg width="178" height="198" viewBox="0 0 178 198" fill="none" xmlns="http://www.w3.org/2000/svg">
<path d="M47.1078 65.8786L47.1091 65.8762L47.1106 65.8736L47.2741 65.627L47.3746 65.4755L47.5564 65.4837L72.4368 66.6364L72.4402 66.6365L72.7211 66.6527L72.9011 66.663L72.9858 66.8222L84.7649 89.0132L84.8524 89.1781L84.7522 89.3355L71.5286 110.125L71.5267 110.128L71.5253 110.13L71.3617 110.377L71.2614 110.529L71.0795 110.52L46.2132 109.372L46.2096 109.372L46.2056 109.372L45.9106 109.351L45.7332 109.339L45.6503 109.182L33.8713 86.991L33.7836 86.8259L33.8837 86.6684L47.1078 65.8786ZM46.7507 107.738L70.3825 108.844L82.9356 89.0989L71.8709 68.2614L48.2342 67.1692L35.6863 86.9003L46.7507 107.738Z" fill="#696969" fill-opacity="0.2"/>
<path d="M73.336 14.5783L73.4352 14.4182L73.6232 14.4269L90.7923 15.2133L90.8011 15.2134L90.8099 15.2143L91.0096 15.2347L91.1802 15.2518L91.2605 15.4033L99.3844 30.7239L99.4719 30.8888L99.3715 31.0463L90.2487 45.3912L90.2467 45.3945L90.143 45.5621L90.0438 45.7222L89.8553 45.7133L72.6911 44.9131L72.6826 44.9125L72.6738 44.9116L72.4741 44.8912L72.3034 44.8741L72.2232 44.7226L64.0992 29.402L64.0117 29.2371L64.1122 29.0797L73.2302 14.749L73.2323 14.7459L73.336 14.5783ZM73.1505 43.6016L89.3374 44.3527L97.9452 30.831L90.371 16.5533L74.1841 15.8022L65.5765 29.3241L73.1505 43.6016Z" fill="#696969" fill-opacity="0.2"/>
<path d="M137.765 132.561L137.762 132.561L137.76 132.562L137.469 132.621L137.291 132.657L137.169 132.523L120.391 114.114L120.388 114.112L120.201 113.902L120.081 113.767L120.134 113.595L127.496 89.5743L127.551 89.3959L127.733 89.3555L151.784 84.0052L151.787 84.0047L151.79 84.0042L152.08 83.9454L152.258 83.9091L152.381 84.0437L169.152 102.438L169.155 102.441L169.158 102.444L169.351 102.668L169.468 102.802L169.415 102.971L162.053 126.991L161.999 127.17L161.817 127.211L137.765 132.561ZM167.617 103.214L151.689 85.7216L128.85 90.8072L121.94 113.366L137.881 130.851L160.706 125.772L167.617 103.214Z" fill="#696969" fill-opacity="0.2"/>
<path d="M119.071 193.394L119.067 193.394L119.064 193.395L118.835 193.441L118.657 193.476L118.535 193.343L105.112 178.616L105.11 178.613L105.108 178.611L104.954 178.435L104.837 178.301L104.889 178.13L110.782 158.892L110.836 158.714L111.019 158.673L130.265 154.398L130.269 154.397L130.272 154.396L130.501 154.351L130.679 154.315L130.801 154.449L144.223 169.175L144.225 169.178L144.228 169.18L144.381 169.356L144.499 169.491L144.447 169.661L138.554 188.899L138.499 189.077L138.317 189.118L119.071 193.394ZM142.863 169.864L130.171 155.912L111.955 159.963L106.446 177.94L119.152 191.886L137.354 187.842L142.863 169.864Z" fill="#696969" fill-opacity="0.2"/>
<path d="M82.9502 150.293L82.7668 150.336L82.64 150.197L71.0557 137.5L71.0496 137.494L71.044 137.487L70.9172 137.332L70.8087 137.199L70.859 137.035L75.9478 120.457L76.0025 120.279L76.1849 120.238L92.7791 116.546L92.7828 116.545L92.9746 116.5L93.158 116.457L93.285 116.596L104.856 129.299L104.862 129.305L104.867 129.312L104.994 129.468L105.103 129.601L105.052 129.765L99.9635 146.342L99.9088 146.521L99.7264 146.561L83.1457 150.247L83.142 150.248L82.9502 150.293ZM103.604 129.901L92.6891 117.925L77.0412 121.399L72.3011 136.851L83.2158 148.828L98.8638 145.353L103.604 129.901Z" fill="#696969" fill-opacity="0.2"/>
<path d="M131.026 155.165L130.929 155.481L130.616 155.375L130.012 155.169L129.717 155.069L129.808 154.772L137.102 130.987L137.199 130.67L137.512 130.777L138.116 130.982L138.41 131.083L138.319 131.38L131.026 155.165Z" fill="#696969" fill-opacity="0.2"/>
<path d="M112.188 159.25L112.398 159.485L112.168 159.7L111.707 160.128L111.468 160.35L111.25 160.107L98.8314 146.295L98.6206 146.061L98.8517 145.846L99.3119 145.418L99.5508 145.196L99.7686 145.438L112.188 159.25Z" fill="#696969" fill-opacity="0.2"/>
</svg>
