<svg width="307" height="301" viewBox="0 0 307 301" fill="none" xmlns="http://www.w3.org/2000/svg">
<path d="M137.869 75.1845L137.867 75.1869L137.866 75.1894L137.693 75.4294L137.586 75.5768L137.405 75.5616L112.589 73.4337L112.585 73.4334L112.305 73.4063L112.126 73.3889L112.048 73.2265L101.148 50.5904L101.067 50.4222L101.173 50.269L115.202 30.0137L115.204 30.0112L115.206 30.009L115.379 29.769L115.485 29.6214L115.667 29.6369L140.469 31.7593L140.472 31.7594L140.476 31.7599L140.77 31.7925L140.947 31.812L141.024 31.9721L151.923 54.6076L152.004 54.776L151.898 54.9295L137.869 75.1845ZM139.868 33.371L116.297 31.3389L102.979 50.5766L113.218 71.8322L136.794 73.8507L150.106 54.6271L139.868 33.371Z" fill="#696969" fill-opacity="0.2"/>
<path d="M165.435 132.54L165.433 132.543L165.431 132.546L165.294 132.735L165.187 132.882L165.007 132.867L145.154 131.164L145.151 131.164L145.147 131.163L144.915 131.139L144.738 131.12L144.66 130.959L135.928 112.833L135.847 112.665L135.954 112.511L147.184 96.3064L147.186 96.3032L147.187 96.3005L147.325 96.1116L147.431 95.9647L147.612 95.9803L167.464 97.6825L167.468 97.6828L167.471 97.683L167.703 97.708L167.881 97.727L167.958 97.8876L176.691 116.014L176.771 116.182L176.665 116.336L165.435 132.54ZM166.934 99.1116L148.142 97.4823L137.516 112.822L145.674 129.763L164.471 131.378L175.091 116.053L166.934 99.1116Z" fill="#696969" fill-opacity="0.2"/>
<path d="M109.653 125.42L109.548 125.576L109.36 125.56L92.2354 124.101L92.2266 124.1L92.2178 124.099L92.0191 124.071L91.8493 124.047L91.775 123.892L84.2583 108.265L84.1774 108.097L84.2839 107.943L93.9624 93.9672L93.9645 93.964L94.0747 93.8006L94.1801 93.6445L94.3681 93.6608L111.488 95.1337L111.496 95.1346L111.505 95.136L111.704 95.1641L111.874 95.188L111.948 95.3425L119.465 110.97L119.545 111.138L119.439 111.292L109.766 125.253L109.764 125.256L109.653 125.42ZM110.977 96.4262L94.8323 95.0407L85.7007 108.214L92.7089 122.778L108.854 124.164L117.985 110.99L110.977 96.4262Z" fill="#696969" fill-opacity="0.2"/>
<path d="M148.264 96.3616L148.408 96.6596L148.105 96.7938L147.522 97.0533L147.238 97.1797L147.103 96.8993L136.312 74.483L136.169 74.1849L136.471 74.0506L137.054 73.7914L137.339 73.6651L137.474 73.9455L148.264 96.3616Z" fill="#696969" fill-opacity="0.2"/>
<path d="M137.206 112.146L137.52 112.175L137.496 112.49L137.449 113.117L137.424 113.442L137.099 113.412L118.604 111.7L118.291 111.671L118.314 111.356L118.362 110.73L118.386 110.404L118.711 110.434L137.206 112.146Z" fill="#696969" fill-opacity="0.2"/>
<path d="M122.399 220.744L122.397 220.742L122.395 220.74L122.208 220.51L122.093 220.37L122.154 220.198L130.633 196.779L130.634 196.775L130.732 196.512L130.796 196.343L130.973 196.309L155.659 191.64L155.842 191.605L155.963 191.748L171.897 210.541L171.899 210.544L171.9 210.546L172.087 210.775L172.202 210.916L172.14 211.087L163.671 234.495L163.67 234.498L163.669 234.502L163.561 234.777L163.496 234.943L163.322 234.976L138.637 239.645L138.453 239.68L138.332 239.538L122.399 220.744ZM162.27 233.497L170.333 211.256L155.198 193.412L132.017 197.801L123.965 220.051L139.088 237.885L162.27 233.497Z" fill="#696969" fill-opacity="0.2"/>
<path d="M81.1801 180.485L81.0566 180.343L81.1207 180.166L86.9625 164.002L86.9652 163.994L86.9688 163.985L87.0474 163.801L87.1144 163.643L87.2829 163.611L104.323 160.395L104.507 160.361L104.627 160.503L115.622 173.469L115.625 173.472L115.754 173.621L115.878 173.763L115.813 173.94L109.96 190.095L109.956 190.103L109.953 190.112L109.874 190.296L109.807 190.454L109.639 190.486L92.5984 193.702L92.415 193.736L92.2943 193.594L81.3118 180.637L81.3094 180.634L81.1801 180.485ZM108.843 189.268L114.36 174.032L103.999 161.802L88.1173 164.802L82.6004 180.038L92.962 192.268L108.843 189.268Z" fill="#696969" fill-opacity="0.2"/>
<path d="M212.967 153.94L212.967 153.942L212.967 153.945L212.937 154.24L212.919 154.421L212.754 154.498L190.199 165.063L190.196 165.065L189.94 165.181L189.776 165.256L189.627 165.155L168.869 151.001L168.715 150.896L168.731 150.71L170.753 126.154L170.753 126.151L170.753 126.148L170.783 125.854L170.801 125.673L170.966 125.595L193.507 115.032L193.51 115.031L193.514 115.029L193.784 114.91L193.947 114.839L194.094 114.939L214.851 129.092L215.005 129.198L214.99 129.384L212.967 153.94ZM193.792 116.729L172.363 126.754L170.448 150.073L189.943 163.362L211.37 153.322L213.287 130.018L193.792 116.729Z" fill="#696969" fill-opacity="0.2"/>
<path d="M265.523 189.834L265.523 189.837L265.523 189.841L265.499 190.073L265.48 190.253L265.316 190.33L247.271 198.782L247.268 198.784L247.265 198.785L247.052 198.88L246.889 198.952L246.741 198.852L230.116 187.52L229.962 187.415L229.977 187.228L231.6 167.58L231.6 167.576L231.601 167.573L231.625 167.34L231.644 167.16L231.808 167.083L249.852 158.631L249.855 158.63L249.858 158.628L250.072 158.534L250.235 158.461L250.382 158.562L267.008 169.894L267.162 169.999L267.147 170.185L265.523 189.834ZM250.107 160.134L233.018 168.119L231.486 186.716L247.021 197.309L264.108 189.309L265.642 170.727L250.107 160.134Z" fill="#696969" fill-opacity="0.2"/>
<path d="M213.65 211.551L213.637 211.739L213.466 211.819L197.906 219.118L197.898 219.122L197.89 219.125L197.704 219.2L197.545 219.264L197.403 219.167L183.08 209.392L182.925 209.287L182.941 209.101L184.335 192.158L184.335 192.154L184.349 191.957L184.362 191.769L184.533 191.69L200.095 184.405L200.103 184.402L200.112 184.399L200.298 184.324L200.457 184.259L200.598 184.356L214.922 194.131L215.076 194.237L215.06 194.423L213.664 211.351L213.664 211.354L213.65 211.551ZM200.3 185.78L185.625 192.652L184.304 208.627L197.655 217.736L212.329 210.863L213.651 194.888L200.3 185.78Z" fill="#696969" fill-opacity="0.2"/>
<path d="M232.556 167.077L232.829 167.263L232.635 167.531L232.259 168.047L232.076 168.299L231.819 168.124L211.266 154.106L210.993 153.919L211.188 153.652L211.563 153.136L211.746 152.884L212.003 153.059L232.556 167.077Z" fill="#696969" fill-opacity="0.2"/>
<path d="M230.876 186.282L231.163 186.151L231.299 186.435L231.572 187.001L231.713 187.295L231.416 187.432L214.543 195.197L214.257 195.328L214.12 195.044L213.848 194.478L213.707 194.184L214.003 194.047L230.876 186.282Z" fill="#696969" fill-opacity="0.2"/>
</svg>
